solid AssimpScene
 facet normal 0 0 -1
  outer loop
  vertex 9.998 7.998 0
  vertex 9.998 5.998 0
  vertex 7.998 5.998 0
  endloop
 endfacet

 facet normal 0 0 -1
  outer loop
  vertex 7.998 7.998 0
  vertex 7.998 9.998 0
  vertex 9.998 7.998 0
  endloop
 endfacet

 facet normal 0 0 -1
  outer loop
  vertex 7.998 5.998 0
  vertex 7.998 7.998 0
  vertex 9.998 7.998 0
  endloop
 endfacet

 facet normal 0 0 -1
  outer loop
  vertex 7.998 3.998 0
  vertex 7.998 2 0
  vertex 5.998 3.998 0
  endloop
 endfacet

 facet normal 0 0 -1
  outer loop
  vertex 5.998 7.998 0
  vertex 5.998 5.998 0
  vertex 3.998 5.998 0
  endloop
 endfacet

 facet normal 0 0 -1
  outer loop
  vertex 2 5.998 0
  vertex 2 7.998 0
  vertex 3.998 5.998 0
  endloop
 endfacet

 facet normal 0 0 -1
  outer loop
  vertex 5.998 5.998 0
  vertex 5.998 7.998 0
  vertex 7.998 5.998 0
  endloop
 endfacet

 facet normal 0 0 -1
  outer loop
  vertex 7.998 7.998 0
  vertex 7.998 5.998 0
  vertex 5.998 7.998 0
  endloop
 endfacet

 facet normal 0 0 -1
  outer loop
  vertex 2.38419e-07 5.998 0
  vertex 1 6.998 0
  vertex 2 5.998 0
  endloop
 endfacet

 facet normal 0 0 -1
  outer loop
  vertex 7.998 9.998 0
  vertex 7.998 7.998 0
  vertex 5.998 7.998 0
  endloop
 endfacet

 facet normal 0 0 -1
  outer loop
  vertex 2.38419e-07 5.998 0
  vertex 2.38419e-07 7.998 0
  vertex 1 6.998 0
  endloop
 endfacet

 facet normal 0 0 -1
  outer loop
  vertex 5.998 7.998 0
  vertex 5.998 9.998 0
  vertex 7.998 9.998 0
  endloop
 endfacet

 facet normal 0 0 -1
  outer loop
  vertex 7.998 -2 0
  vertex 7.998 2.38419e-07 0
  vertex 9.998 2.38419e-07 0
  endloop
 endfacet

 facet normal 0 0 -1
  outer loop
  vertex 7.998 2 0
  vertex 7.998 3.998 0
  vertex 9.998 3.998 0
  endloop
 endfacet

 facet normal 0 0 -1
  outer loop
  vertex 5.998 3.998 0
  vertex 5.998 5.998 0
  vertex 7.998 5.998 0
  endloop
 endfacet

 facet normal 0 0 -1
  outer loop
  vertex 9.998 2 0
  vertex 9.998 2.38419e-07 0
  vertex 7.998 2 0
  endloop
 endfacet

 facet normal 0 0 -1
  outer loop
  vertex 3.998 2.38419e-07 0
  vertex 3.998 -2 0
  vertex 2 2.38419e-07 0
  endloop
 endfacet

 facet normal 0 0 -1
  outer loop
  vertex 5.998 -2 0
  vertex 5.998 2.38419e-07 0
  vertex 7.998 -2 0
  endloop
 endfacet

 facet normal 0 0 -1
  outer loop
  vertex 2.38419e-07 7.998 0
  vertex 2.38419e-07 9.998 0
  vertex 2 7.998 0
  endloop
 endfacet

 facet normal 0 0 -1
  outer loop
  vertex 2 2.38419e-07 0
  vertex 2 2 0
  vertex 3.998 2 0
  endloop
 endfacet

 facet normal 0 0 -1
  outer loop
  vertex 5.998 2.38419e-07 0
  vertex 5.998 2 0
  vertex 6.998 1 0
  endloop
 endfacet

 facet normal 0 0 -1
  outer loop
  vertex 2 7.998 0
  vertex 1 6.998 0
  vertex 2.38419e-07 7.998 0
  endloop
 endfacet

 facet normal 0 0 -1
  outer loop
  vertex 9.998 9.998 0
  vertex 9.998 7.998 0
  vertex 7.998 9.998 0
  endloop
 endfacet

 facet normal 0 0 -1
  outer loop
  vertex 9.998 3.998 0
  vertex 9.998 2 0
  vertex 7.998 2 0
  endloop
 endfacet

 facet normal 0 0 -1
  outer loop
  vertex 7.998 2.38419e-07 0
  vertex 7.998 2 0
  vertex 9.998 2.38419e-07 0
  endloop
 endfacet

 facet normal 0 0 -1
  outer loop
  vertex 7.998 2 0
  vertex 6.998 1 0
  vertex 5.998 2 0
  endloop
 endfacet

 facet normal 0 0 -1
  outer loop
  vertex 7.998 5.998 0
  vertex 7.998 3.998 0
  vertex 5.998 3.998 0
  endloop
 endfacet

 facet normal 0 0 -1
  outer loop
  vertex 9.998 5.998 0
  vertex 9.998 3.998 0
  vertex 7.998 5.998 0
  endloop
 endfacet

 facet normal 0 0 -1
  outer loop
  vertex 5.998 2 0
  vertex 5.998 3.998 0
  vertex 7.998 2 0
  endloop
 endfacet

 facet normal 0 0 -1
  outer loop
  vertex 7.998 3.998 0
  vertex 7.998 5.998 0
  vertex 9.998 3.998 0
  endloop
 endfacet

 facet normal 0 0 -1
  outer loop
  vertex 3.998 5.998 0
  vertex 3.998 7.998 0
  vertex 5.998 7.998 0
  endloop
 endfacet

 facet normal 0 0 -1
  outer loop
  vertex 9.998 2.38419e-07 0
  vertex 9.998 -2 0
  vertex 7.998 -2 0
  endloop
 endfacet

 facet normal 0 0 -1
  outer loop
  vertex 7.998 2.38419e-07 0
  vertex 7.998 -2 0
  vertex 5.998 2.38419e-07 0
  endloop
 endfacet

 facet normal 0 0 -1
  outer loop
  vertex 2 5.998 0
  vertex 2 3.998 0
  vertex 2.38419e-07 5.998 0
  endloop
 endfacet

 facet normal 0 0 -1
  outer loop
  vertex 3.998 -2 0
  vertex 3.998 2.38419e-07 0
  vertex 5.998 2.38419e-07 0
  endloop
 endfacet

 facet normal 0 0 -1
  outer loop
  vertex 7.998 2 0
  vertex 7.998 2.38419e-07 0
  vertex 6.998 1 0
  endloop
 endfacet

 facet normal 0 0 -1
  outer loop
  vertex 5.998 2 0
  vertex 5.998 2.38419e-07 0
  vertex 3.998 2 0
  endloop
 endfacet

 facet normal 0 0 -1
  outer loop
  vertex 5.998 2.38419e-07 0
  vertex 5.998 -2 0
  vertex 3.998 -2 0
  endloop
 endfacet

 facet normal 0 0 -1
  outer loop
  vertex 2 -2 0
  vertex 2 2.38419e-07 0
  vertex 3.998 -2 0
  endloop
 endfacet

 facet normal 0 0 -1
  outer loop
  vertex 3.998 2.38419e-07 0
  vertex 3.998 2 0
  vertex 5.998 2.38419e-07 0
  endloop
 endfacet

 facet normal 0 0 -1
  outer loop
  vertex 3.998 2 0
  vertex 3.998 2.38419e-07 0
  vertex 2 2.38419e-07 0
  endloop
 endfacet

 facet normal 0 0 -1
  outer loop
  vertex 2 7.998 0
  vertex 2 5.998 0
  vertex 1 6.998 0
  endloop
 endfacet

 facet normal 0 0 -1
  outer loop
  vertex 2.38419e-07 2 0
  vertex 2.38419e-07 3.998 0
  vertex 2 3.998 0
  endloop
 endfacet

 facet normal 0 0 -1
  outer loop
  vertex -2 5.998 0
  vertex -2 7.998 0
  vertex 2.38419e-07 5.998 0
  endloop
 endfacet

 facet normal 0 0 -1
  outer loop
  vertex 2.38419e-07 7.998 0
  vertex 2.38419e-07 5.998 0
  vertex -2 7.998 0
  endloop
 endfacet

 facet normal 0 0 -1
  outer loop
  vertex 2.38419e-07 3.998 0
  vertex 2.38419e-07 2 0
  vertex -2 3.998 0
  endloop
 endfacet

 facet normal 0 0 -1
  outer loop
  vertex 2.38419e-07 9.998 0
  vertex 2.38419e-07 7.998 0
  vertex -2 7.998 0
  endloop
 endfacet

 facet normal 0 0 -1
  outer loop
  vertex -2 7.998 0
  vertex -2 9.998 0
  vertex 2.38419e-07 9.998 0
  endloop
 endfacet

 facet normal 0 0 -1
  outer loop
  vertex 3.998 7.998 0
  vertex 3.998 9.998 0
  vertex 5.998 7.998 0
  endloop
 endfacet

 facet normal 0 0 -1
  outer loop
  vertex 2 9.998 0
  vertex 2 7.998 0
  vertex 2.38419e-07 9.998 0
  endloop
 endfacet

 facet normal 0 0 -1
  outer loop
  vertex 3.998 7.998 0
  vertex 3.998 5.998 0
  vertex 2 7.998 0
  endloop
 endfacet

 facet normal 0 0 -1
  outer loop
  vertex -2 2 0
  vertex -2 3.998 0
  vertex 2.38419e-07 2 0
  endloop
 endfacet

 facet normal 0 0 -1
  outer loop
  vertex -2 3.998 0
  vertex -2 5.998 0
  vertex 2.38419e-07 5.998 0
  endloop
 endfacet

 facet normal 0 0 -1
  outer loop
  vertex 2.38419e-07 2.38419e-07 0
  vertex 2.38419e-07 -2 0
  vertex -2 2.38419e-07 0
  endloop
 endfacet

 facet normal 0 0 -1
  outer loop
  vertex 2 3.998 0
  vertex 2 2 0
  vertex 2.38419e-07 2 0
  endloop
 endfacet

 facet normal 0 0 -1
  outer loop
  vertex 2.38419e-07 -2 0
  vertex 2.38419e-07 2.38419e-07 0
  vertex 2 2.38419e-07 0
  endloop
 endfacet

 facet normal 0 0 -1
  outer loop
  vertex 2 2 0
  vertex 2 2.38419e-07 0
  vertex 2.38419e-07 2 0
  endloop
 endfacet

 facet normal 0 0 -1
  outer loop
  vertex 2.38419e-07 3.998 0
  vertex 2.38419e-07 5.998 0
  vertex 2 3.998 0
  endloop
 endfacet

 facet normal 0 0 -1
  outer loop
  vertex 2.38419e-07 5.998 0
  vertex 2.38419e-07 3.998 0
  vertex -2 3.998 0
  endloop
 endfacet

 facet normal 0 0 -1
  outer loop
  vertex -2 2.38419e-07 0
  vertex -2 2 0
  vertex 2.38419e-07 2 0
  endloop
 endfacet

 facet normal 0 0 -1
  outer loop
  vertex 2 2.38419e-07 0
  vertex 2 -2 0
  vertex 2.38419e-07 -2 0
  endloop
 endfacet

 facet normal 0 0 -1
  outer loop
  vertex -2 -2 0
  vertex -2 2.38419e-07 0
  vertex 2.38419e-07 -2 0
  endloop
 endfacet

 facet normal 0 0 -1
  outer loop
  vertex 2.38419e-07 2.38419e-07 0
  vertex 2.38419e-07 2 0
  vertex 2 2.38419e-07 0
  endloop
 endfacet

 facet normal 0 0 -1
  outer loop
  vertex 2.38419e-07 2 0
  vertex 2.38419e-07 2.38419e-07 0
  vertex -2 2.38419e-07 0
  endloop
 endfacet

 facet normal 0 0 -1
  outer loop
  vertex 3.998 9.998 0
  vertex 3.998 7.998 0
  vertex 2 7.998 0
  endloop
 endfacet

 facet normal 0 0 -1
  outer loop
  vertex 2 7.998 0
  vertex 2 9.998 0
  vertex 3.998 9.998 0
  endloop
 endfacet

 facet normal 0 0 -1
  outer loop
  vertex 5.998 2.38419e-07 0
  vertex 6.998 1 0
  vertex 7.998 2.38419e-07 0
  endloop
 endfacet

 facet normal 0 0 -1
  outer loop
  vertex 5.998 9.998 0
  vertex 5.998 7.998 0
  vertex 3.998 9.998 0
  endloop
 endfacet

 facet normal 0 0 1
  outer loop
  vertex 8.998 8.998 1.414
  vertex 7.998 7.998 1.414
  vertex 8.998 6.998 1.414
  endloop
 endfacet

 facet normal 0 0 1
  outer loop
  vertex 11 6.998 1.414
  vertex 8.998 6.998 1.414
  vertex 9.998 5.998 1.414
  endloop
 endfacet

 facet normal 0 0 1
  outer loop
  vertex 8.998 6.998 1.414
  vertex 11 6.998 1.414
  vertex 9.998 7.998 1.414
  endloop
 endfacet

 facet normal 0 0 1
  outer loop
  vertex 8.998 6.998 1.414
  vertex 9.998 7.998 1.414
  vertex 8.998 8.998 1.414
  endloop
 endfacet

 facet normal 0 0 1
  outer loop
  vertex 8.998 1 1.414
  vertex 9.998 2 1.414
  vertex 8.998 3 1.414
  endloop
 endfacet

 facet normal 0 0 1
  outer loop
  vertex 8.998 4.998 1.414
  vertex 9.998 5.998 1.414
  vertex 8.998 6.998 1.414
  endloop
 endfacet

 facet normal 0 0 1
  outer loop
  vertex 8.998 3 1.414
  vertex 11 3 1.414
  vertex 9.998 3.998 1.414
  endloop
 endfacet

 facet normal 0 0 1
  outer loop
  vertex 6.998 6.998 1.414
  vertex 5.998 5.998 1.414
  vertex 6.998 4.998 1.414
  endloop
 endfacet

 facet normal 0 0 1
  outer loop
  vertex 6.998 4.998 1.414
  vertex 7.998 5.998 1.414
  vertex 6.998 6.998 1.414
  endloop
 endfacet

 facet normal 0 0 1
  outer loop
  vertex 8.998 6.998 1.414
  vertex 6.998 6.998 1.414
  vertex 7.998 5.998 1.414
  endloop
 endfacet

 facet normal 0 0 1
  outer loop
  vertex 6.998 8.998 1.414
  vertex 5.998 7.998 1.414
  vertex 6.998 6.998 1.414
  endloop
 endfacet

 facet normal 0 0 1
  outer loop
  vertex 6.998 6.998 1.414
  vertex 8.998 6.998 1.414
  vertex 7.998 7.998 1.414
  endloop
 endfacet

 facet normal 0 0 1
  outer loop
  vertex 8.998 8.998 1.414
  vertex 6.998 8.998 1.414
  vertex 7.998 7.998 1.414
  endloop
 endfacet

 facet normal 0 0 1
  outer loop
  vertex 6.998 8.998 1.414
  vertex 4.998 8.998 1.414
  vertex 5.998 7.998 1.414
  endloop
 endfacet

 facet normal 0 0 1
  outer loop
  vertex 6.998 6.998 1.414
  vertex 7.998 7.998 1.414
  vertex 6.998 8.998 1.414
  endloop
 endfacet

 facet normal 0 0 1
  outer loop
  vertex 8.998 6.998 1.414
  vertex 7.998 5.998 1.414
  vertex 8.998 4.998 1.414
  endloop
 endfacet

 facet normal 0 0 1
  outer loop
  vertex 4.998 8.998 1.414
  vertex 3.998 7.998 1.414
  vertex 4.998 6.998 1.414
  endloop
 endfacet

 facet normal 0 0 1
  outer loop
  vertex 11 3 1.414
  vertex 8.998 3 1.414
  vertex 9.998 2 1.414
  endloop
 endfacet

 facet normal 0 0 1
  outer loop
  vertex 4.998 8.998 1.414
  vertex 6.998 8.998 1.414
  vertex 5.998 9.998 1.414
  endloop
 endfacet

 facet normal 0 0 1
  outer loop
  vertex 6.998 8.998 1.414
  vertex 8.998 8.998 1.414
  vertex 7.998 9.998 1.414
  endloop
 endfacet

 facet normal 0 0 1
  outer loop
  vertex 8.998 8.998 1.414
  vertex 9.998 9.998 1.414
  vertex 8.998 11 1.414
  endloop
 endfacet

 facet normal 0 0 1
  outer loop
  vertex 8.998 11 1.414
  vertex 7.998 9.998 1.414
  vertex 8.998 8.998 1.414
  endloop
 endfacet

 facet normal 0 0 1
  outer loop
  vertex 8.998 3 1.414
  vertex 9.998 3.998 1.414
  vertex 8.998 4.998 1.414
  endloop
 endfacet

 facet normal 0 0 1
  outer loop
  vertex 8.998 4.998 1.414
  vertex 7.998 3.998 1.414
  vertex 8.998 3 1.414
  endloop
 endfacet

 facet normal 0 0 1
  outer loop
  vertex 8.998 -1 1.414
  vertex 9.998 2.38419e-07 1.414
  vertex 8.998 1 1.414
  endloop
 endfacet

 facet normal 0 0 1
  outer loop
  vertex 11 -1 1.414
  vertex 8.998 -1 1.414
  vertex 9.998 -2 1.414
  endloop
 endfacet

 facet normal 0 0 1
  outer loop
  vertex 6.998 4.998 1.414
  vertex 8.998 4.998 1.414
  vertex 7.998 5.998 1.414
  endloop
 endfacet

 facet normal 0 0 1
  outer loop
  vertex 8.998 -1 1.414
  vertex 11 -1 1.414
  vertex 9.998 2.38419e-07 1.414
  endloop
 endfacet

 facet normal 0 0 1
  outer loop
  vertex 6.998 3 1.414
  vertex 5.998 2 1.414
  vertex 6.998 1 1.414
  endloop
 endfacet

 facet normal 0 0 1
  outer loop
  vertex 6.998 1 1.414
  vertex 7.998 2 1.414
  vertex 6.998 3 1.414
  endloop
 endfacet

 facet normal 0 0 1
  outer loop
  vertex 8.998 3 1.414
  vertex 6.998 3 1.414
  vertex 7.998 2 1.414
  endloop
 endfacet

 facet normal 0 0 1
  outer loop
  vertex 6.998 4.998 1.414
  vertex 5.998 3.998 1.414
  vertex 6.998 3 1.414
  endloop
 endfacet

 facet normal 0 0 1
  outer loop
  vertex 6.998 3 1.414
  vertex 7.998 3.998 1.414
  vertex 6.998 4.998 1.414
  endloop
 endfacet

 facet normal 0 0 1
  outer loop
  vertex 6.998 3 1.414
  vertex 8.998 3 1.414
  vertex 7.998 3.998 1.414
  endloop
 endfacet

 facet normal 0 0 1
  outer loop
  vertex 6.998 4.998 1.414
  vertex 4.998 4.998 1.414
  vertex 5.998 3.998 1.414
  endloop
 endfacet

 facet normal 0 0 1
  outer loop
  vertex 4.998 6.998 1.414
  vertex 5.998 7.998 1.414
  vertex 4.998 8.998 1.414
  endloop
 endfacet

 facet normal 0 0 1
  outer loop
  vertex 8.998 3 1.414
  vertex 7.998 2 1.414
  vertex 8.998 1 1.414
  endloop
 endfacet

 facet normal 0 0 1
  outer loop
  vertex 4.998 4.998 1.414
  vertex 6.998 4.998 1.414
  vertex 5.998 5.998 1.414
  endloop
 endfacet

 facet normal 0 0 1
  outer loop
  vertex 8.998 4.998 1.414
  vertex 6.998 4.998 1.414
  vertex 7.998 3.998 1.414
  endloop
 endfacet

 facet normal 0 0 1
  outer loop
  vertex 8.998 1 1.414
  vertex 7.998 2.38419e-07 1.414
  vertex 8.998 -1 1.414
  endloop
 endfacet

 facet normal 0 0 1
  outer loop
  vertex 4.998 -1 1.414
  vertex 6.998 -1 1.414
  vertex 5.998 2.38419e-07 1.414
  endloop
 endfacet

 facet normal 0 0 1
  outer loop
  vertex 1 1 1.414
  vertex 2 2 1.414
  vertex 1 3 1.414
  endloop
 endfacet

 facet normal 0 0 1
  outer loop
  vertex 6.998 1 1.414
  vertex 8.998 1 1.414
  vertex 7.998 2 1.414
  endloop
 endfacet

 facet normal 0 0 1
  outer loop
  vertex 6.998 -1 1.414
  vertex 5.998 -2 1.414
  vertex 6.998 -3 1.414
  endloop
 endfacet

 facet normal 0 0 1
  outer loop
  vertex 6.998 -3 1.414
  vertex 7.998 -2 1.414
  vertex 6.998 -1 1.414
  endloop
 endfacet

 facet normal 0 0 1
  outer loop
  vertex 8.998 -1 1.414
  vertex 6.998 -1 1.414
  vertex 7.998 -2 1.414
  endloop
 endfacet

 facet normal 0 0 1
  outer loop
  vertex 6.998 1 1.414
  vertex 5.998 2.38419e-07 1.414
  vertex 6.998 -1 1.414
  endloop
 endfacet

 facet normal 0 0 1
  outer loop
  vertex 6.998 -1 1.414
  vertex 7.998 2.38419e-07 1.414
  vertex 6.998 1 1.414
  endloop
 endfacet

 facet normal 0 0 1
  outer loop
  vertex 6.998 -1 1.414
  vertex 8.998 -1 1.414
  vertex 7.998 2.38419e-07 1.414
  endloop
 endfacet

 facet normal 0 0 1
  outer loop
  vertex 6.998 1 1.414
  vertex 4.998 1 1.414
  vertex 5.998 2.38419e-07 1.414
  endloop
 endfacet

 facet normal 0 0 1
  outer loop
  vertex 1 6.998 1.414
  vertex 3 6.998 1.414
  vertex 2 7.998 1.414
  endloop
 endfacet

 facet normal 0 0 1
  outer loop
  vertex 1 8.998 1.414
  vertex 2.38419e-07 7.998 1.414
  vertex 1 6.998 1.414
  endloop
 endfacet

 facet normal 0 0 1
  outer loop
  vertex 4.998 -1 1.414
  vertex 5.998 2.38419e-07 1.414
  vertex 4.998 1 1.414
  endloop
 endfacet

 facet normal 0 0 1
  outer loop
  vertex 4.998 1 1.414
  vertex 6.998 1 1.414
  vertex 5.998 2 1.414
  endloop
 endfacet

 facet normal 0 0 1
  outer loop
  vertex 4.998 1 1.414
  vertex 3.998 2.38419e-07 1.414
  vertex 4.998 -1 1.414
  endloop
 endfacet

 facet normal 0 0 1
  outer loop
  vertex 8.998 1 1.414
  vertex 6.998 1 1.414
  vertex 7.998 2.38419e-07 1.414
  endloop
 endfacet

 facet normal 0 0 1
  outer loop
  vertex 6.998 -1 1.414
  vertex 4.998 -1 1.414
  vertex 5.998 -2 1.414
  endloop
 endfacet

 facet normal 0 0 1
  outer loop
  vertex 3 -1 1.414
  vertex 2 -2 1.414
  vertex 3 -3 1.414
  endloop
 endfacet

 facet normal 0 0 1
  outer loop
  vertex 3 -3 1.414
  vertex 3.998 -2 1.414
  vertex 3 -1 1.414
  endloop
 endfacet

 facet normal 0 0 1
  outer loop
  vertex 4.998 -1 1.414
  vertex 3 -1 1.414
  vertex 3.998 -2 1.414
  endloop
 endfacet

 facet normal 0 0 1
  outer loop
  vertex 3 1 1.414
  vertex 2 2.38419e-07 1.414
  vertex 3 -1 1.414
  endloop
 endfacet

 facet normal 0 0 1
  outer loop
  vertex 3 -1 1.414
  vertex 4.998 -1 1.414
  vertex 3.998 2.38419e-07 1.414
  endloop
 endfacet

 facet normal 0 0 1
  outer loop
  vertex 4.998 1 1.414
  vertex 3 1 1.414
  vertex 3.998 2.38419e-07 1.414
  endloop
 endfacet

 facet normal 0 0 1
  outer loop
  vertex 3 1 1.414
  vertex 1 1 1.414
  vertex 2 2.38419e-07 1.414
  endloop
 endfacet

 facet normal 0 0 1
  outer loop
  vertex 3 -1 1.414
  vertex 3.998 2.38419e-07 1.414
  vertex 3 1 1.414
  endloop
 endfacet

 facet normal 0 0 1
  outer loop
  vertex 1 -1 1.414
  vertex 2 2.38419e-07 1.414
  vertex 1 1 1.414
  endloop
 endfacet

 facet normal 0 0 1
  outer loop
  vertex 1 1 1.414
  vertex 2.38419e-07 2.38419e-07 1.414
  vertex 1 -1 1.414
  endloop
 endfacet

 facet normal 0 0 1
  outer loop
  vertex 4.998 1 1.414
  vertex 5.998 2 1.414
  vertex 4.998 3 1.414
  endloop
 endfacet

 facet normal 0 0 1
  outer loop
  vertex 1 1 1.414
  vertex 3 1 1.414
  vertex 2 2 1.414
  endloop
 endfacet

 facet normal 0 0 1
  outer loop
  vertex 3 6.998 1.414
  vertex 2 5.998 1.414
  vertex 3 4.998 1.414
  endloop
 endfacet

 facet normal 0 0 1
  outer loop
  vertex 3 1 1.414
  vertex 4.998 1 1.414
  vertex 3.998 2 1.414
  endloop
 endfacet

 facet normal 0 0 1
  outer loop
  vertex 4.998 6.998 1.414
  vertex 3 6.998 1.414
  vertex 3.998 5.998 1.414
  endloop
 endfacet

 facet normal 0 0 1
  outer loop
  vertex 4.998 3 1.414
  vertex 3.998 2 1.414
  vertex 4.998 1 1.414
  endloop
 endfacet

 facet normal 0 0 1
  outer loop
  vertex 3 6.998 1.414
  vertex 1 6.998 1.414
  vertex 2 5.998 1.414
  endloop
 endfacet

 facet normal 0 0 1
  outer loop
  vertex 1 6.998 1.414
  vertex -1 6.998 1.414
  vertex 2.38419e-07 5.998 1.414
  endloop
 endfacet

 facet normal 0 0 1
  outer loop
  vertex 1 6.998 1.414
  vertex 2 7.998 1.414
  vertex 1 8.998 1.414
  endloop
 endfacet

 facet normal 0 0 1
  outer loop
  vertex 1 4.998 1.414
  vertex 2 5.998 1.414
  vertex 1 6.998 1.414
  endloop
 endfacet

 facet normal 0 0 1
  outer loop
  vertex -1 6.998 1.414
  vertex -2 5.998 1.414
  vertex -1 4.998 1.414
  endloop
 endfacet

 facet normal 0 0 1
  outer loop
  vertex 1 3 1.414
  vertex 3 3 1.414
  vertex 2 3.998 1.414
  endloop
 endfacet

 facet normal 0 0 1
  outer loop
  vertex -1 4.998 1.414
  vertex 2.38419e-07 5.998 1.414
  vertex -1 6.998 1.414
  endloop
 endfacet

 facet normal 0 0 1
  outer loop
  vertex -1 8.998 1.414
  vertex -2 7.998 1.414
  vertex -1 6.998 1.414
  endloop
 endfacet

 facet normal 0 0 1
  outer loop
  vertex 1 -1 1.414
  vertex 3 -1 1.414
  vertex 2 2.38419e-07 1.414
  endloop
 endfacet

 facet normal 0 0 1
  outer loop
  vertex -1 6.998 1.414
  vertex 1 6.998 1.414
  vertex 2.38419e-07 7.998 1.414
  endloop
 endfacet

 facet normal 0 0 1
  outer loop
  vertex 1 8.998 1.414
  vertex -1 8.998 1.414
  vertex 2.38419e-07 7.998 1.414
  endloop
 endfacet

 facet normal 0 0 1
  outer loop
  vertex -1 8.998 1.414
  vertex -3 8.998 1.414
  vertex -2 7.998 1.414
  endloop
 endfacet

 facet normal 0 0 1
  outer loop
  vertex -1 6.998 1.414
  vertex 2.38419e-07 7.998 1.414
  vertex -1 8.998 1.414
  endloop
 endfacet

 facet normal 0 0 1
  outer loop
  vertex 1 6.998 1.414
  vertex 2.38419e-07 5.998 1.414
  vertex 1 4.998 1.414
  endloop
 endfacet

 facet normal 0 0 1
  outer loop
  vertex -1 4.998 1.414
  vertex 1 4.998 1.414
  vertex 2.38419e-07 5.998 1.414
  endloop
 endfacet

 facet normal 0 0 1
  outer loop
  vertex -3 8.998 1.414
  vertex -1 8.998 1.414
  vertex -2 9.998 1.414
  endloop
 endfacet

 facet normal 0 0 1
  outer loop
  vertex -1 8.998 1.414
  vertex 1 8.998 1.414
  vertex 2.38419e-07 9.998 1.414
  endloop
 endfacet

 facet normal 0 0 1
  outer loop
  vertex 1 8.998 1.414
  vertex 2 9.998 1.414
  vertex 1 11 1.414
  endloop
 endfacet

 facet normal 0 0 1
  outer loop
  vertex 1 11 1.414
  vertex 2.38419e-07 9.998 1.414
  vertex 1 8.998 1.414
  endloop
 endfacet

 facet normal 0 0 1
  outer loop
  vertex 1 3 1.414
  vertex 2 3.998 1.414
  vertex 1 4.998 1.414
  endloop
 endfacet

 facet normal 0 0 1
  outer loop
  vertex 3 8.998 1.414
  vertex 1 8.998 1.414
  vertex 2 7.998 1.414
  endloop
 endfacet

 facet normal 0 0 1
  outer loop
  vertex 3 6.998 1.414
  vertex 3.998 7.998 1.414
  vertex 3 8.998 1.414
  endloop
 endfacet

 facet normal 0 0 1
  outer loop
  vertex 1 3 1.414
  vertex -1 3 1.414
  vertex 2.38419e-07 2 1.414
  endloop
 endfacet

 facet normal 0 0 1
  outer loop
  vertex 1 4.998 1.414
  vertex 2.38419e-07 3.998 1.414
  vertex 1 3 1.414
  endloop
 endfacet

 facet normal 0 0 1
  outer loop
  vertex -1 3 1.414
  vertex -2 2 1.414
  vertex -1 1 1.414
  endloop
 endfacet

 facet normal 0 0 1
  outer loop
  vertex 3 8.998 1.414
  vertex 2 7.998 1.414
  vertex 3 6.998 1.414
  endloop
 endfacet

 facet normal 0 0 1
  outer loop
  vertex 3 6.998 1.414
  vertex 4.998 6.998 1.414
  vertex 3.998 7.998 1.414
  endloop
 endfacet

 facet normal 0 0 1
  outer loop
  vertex 3 3 1.414
  vertex 1 3 1.414
  vertex 2 2 1.414
  endloop
 endfacet

 facet normal 0 0 1
  outer loop
  vertex -1 1 1.414
  vertex 2.38419e-07 2 1.414
  vertex -1 3 1.414
  endloop
 endfacet

 facet normal 0 0 1
  outer loop
  vertex -1 3 1.414
  vertex 2.38419e-07 3.998 1.414
  vertex -1 4.998 1.414
  endloop
 endfacet

 facet normal 0 0 1
  outer loop
  vertex -1 4.998 1.414
  vertex -2 3.998 1.414
  vertex -1 3 1.414
  endloop
 endfacet

 facet normal 0 0 1
  outer loop
  vertex 4.998 6.998 1.414
  vertex 6.998 6.998 1.414
  vertex 5.998 7.998 1.414
  endloop
 endfacet

 facet normal 0 0 1
  outer loop
  vertex -1 3 1.414
  vertex 1 3 1.414
  vertex 2.38419e-07 3.998 1.414
  endloop
 endfacet

 facet normal 0 0 1
  outer loop
  vertex -1 4.998 1.414
  vertex -3 4.998 1.414
  vertex -2 3.998 1.414
  endloop
 endfacet

 facet normal 0 0 1
  outer loop
  vertex 1 3 1.414
  vertex 2.38419e-07 2 1.414
  vertex 1 1 1.414
  endloop
 endfacet

 facet normal 0 0 1
  outer loop
  vertex -3 4.998 1.414
  vertex -1 4.998 1.414
  vertex -2 5.998 1.414
  endloop
 endfacet

 facet normal 0 0 1
  outer loop
  vertex 1 4.998 1.414
  vertex -1 4.998 1.414
  vertex 2.38419e-07 3.998 1.414
  endloop
 endfacet

 facet normal 0 0 1
  outer loop
  vertex 3 -1 1.414
  vertex 1 -1 1.414
  vertex 2 -2 1.414
  endloop
 endfacet

 facet normal 0 0 1
  outer loop
  vertex -1 1 1.414
  vertex 1 1 1.414
  vertex 2.38419e-07 2 1.414
  endloop
 endfacet

 facet normal 0 0 1
  outer loop
  vertex -1 -1 1.414
  vertex -2 -2 1.414
  vertex -1 -3 1.414
  endloop
 endfacet

 facet normal 0 0 1
  outer loop
  vertex -1 -3 1.414
  vertex 2.38419e-07 -2 1.414
  vertex -1 -1 1.414
  endloop
 endfacet

 facet normal 0 0 1
  outer loop
  vertex 1 -1 1.414
  vertex -1 -1 1.414
  vertex 2.38419e-07 -2 1.414
  endloop
 endfacet

 facet normal 0 0 1
  outer loop
  vertex -1 1 1.414
  vertex -2 2.38419e-07 1.414
  vertex -1 -1 1.414
  endloop
 endfacet

 facet normal 0 0 1
  outer loop
  vertex -1 -1 1.414
  vertex 2.38419e-07 2.38419e-07 1.414
  vertex -1 1 1.414
  endloop
 endfacet

 facet normal 0 0 1
  outer loop
  vertex -1 -1 1.414
  vertex 1 -1 1.414
  vertex 2.38419e-07 2.38419e-07 1.414
  endloop
 endfacet

 facet normal 0 0 1
  outer loop
  vertex -1 1 1.414
  vertex -3 1 1.414
  vertex -2 2.38419e-07 1.414
  endloop
 endfacet

 facet normal 0 0 1
  outer loop
  vertex -3 1 1.414
  vertex -1 1 1.414
  vertex -2 2 1.414
  endloop
 endfacet

 facet normal 0 0 1
  outer loop
  vertex 1 1 1.414
  vertex -1 1 1.414
  vertex 2.38419e-07 2.38419e-07 1.414
  endloop
 endfacet

 facet normal 0 0 1
  outer loop
  vertex 3 4.998 1.414
  vertex 3.998 5.998 1.414
  vertex 3 6.998 1.414
  endloop
 endfacet

 facet normal 0 0 1
  outer loop
  vertex 6.998 6.998 1.414
  vertex 4.998 6.998 1.414
  vertex 5.998 5.998 1.414
  endloop
 endfacet

 facet normal 0 0 1
  outer loop
  vertex 4.998 8.998 1.414
  vertex 3 8.998 1.414
  vertex 3.998 7.998 1.414
  endloop
 endfacet

 facet normal 0 0 1
  outer loop
  vertex 1 8.998 1.414
  vertex 3 8.998 1.414
  vertex 2 9.998 1.414
  endloop
 endfacet

 facet normal 0 0 1
  outer loop
  vertex 4.998 8.998 1.414
  vertex 5.998 9.998 1.414
  vertex 4.998 11 1.414
  endloop
 endfacet

 facet normal 0 0 1
  outer loop
  vertex 3 8.998 1.414
  vertex 4.998 8.998 1.414
  vertex 3.998 9.998 1.414
  endloop
 endfacet

 facet normal 0 0 1
  outer loop
  vertex 4.998 11 1.414
  vertex 3.998 9.998 1.414
  vertex 4.998 8.998 1.414
  endloop
 endfacet

 facet normal -0.707813 0.7064 0
  outer loop
  vertex 3.998 9.998 0
  vertex 3.998 9.998 1.414
  vertex 4.998 11 1.414
  endloop
 endfacet

 facet normal -0.707814 0.706399 0
  outer loop
  vertex 3.998 9.998 0
  vertex 3 8.998 1.414
  vertex 3.998 9.998 1.414
  endloop
 endfacet

 facet normal 0 0.815911 -0.578178
  outer loop
  vertex 2.38419e-07 9.998 0
  vertex 1 11 1.414
  vertex 2 9.998 0
  endloop
 endfacet

 facet normal 0 0.815911 -0.578178
  outer loop
  vertex 7.998 9.998 0
  vertex 8.998 11 1.414
  vertex 9.998 9.998 0
  endloop
 endfacet

 facet normal 0 0.815911 -0.578178
  outer loop
  vertex 3.998 9.998 0
  vertex 4.998 11 1.414
  vertex 5.998 9.998 0
  endloop
 endfacet

 facet normal 0.707107 0.707107 0
  outer loop
  vertex 5.998 9.998 1.414
  vertex 6.998 8.998 1.414
  vertex 5.998 9.998 0
  endloop
 endfacet

 facet normal 0.707813 0.7064 0
  outer loop
  vertex 5.998 9.998 0
  vertex 4.998 11 1.414
  vertex 5.998 9.998 1.414
  endloop
 endfacet

 facet normal -0.707107 0.707107 0
  outer loop
  vertex -2 2 0
  vertex -2 2 1.414
  vertex -1 3 1.414
  endloop
 endfacet

 facet normal -0.707107 0.707107 0
  outer loop
  vertex -2 2 1.414
  vertex -2 2 0
  vertex -3 1 1.414
  endloop
 endfacet

 facet normal 0.816455 0 0.577408
  outer loop
  vertex 2 3.998 0
  vertex 2 5.998 0
  vertex 1 4.998 1.414
  endloop
 endfacet

 facet normal -0.707107 0.707107 0
  outer loop
  vertex -2 5.998 0
  vertex -2 5.998 1.414
  vertex -1 6.998 1.414
  endloop
 endfacet

 facet normal -0.707107 0.707107 0
  outer loop
  vertex -2 5.998 1.414
  vertex -2 5.998 0
  vertex -3 4.998 1.414
  endloop
 endfacet

 facet normal 0.707107 0.707107 0
  outer loop
  vertex 2 9.998 1.414
  vertex 3 8.998 1.414
  vertex 2 9.998 0
  endloop
 endfacet

 facet normal 0.707813 0.7064 0
  outer loop
  vertex 2 9.998 0
  vertex 1 11 1.414
  vertex 2 9.998 1.414
  endloop
 endfacet

 facet normal 0 0.816455 0.577408
  outer loop
  vertex -2 9.998 0
  vertex -1 8.998 1.414
  vertex 2.38419e-07 9.998 0
  endloop
 endfacet

 facet normal 0 0.816455 0.577408
  outer loop
  vertex 5.998 9.998 0
  vertex 6.998 8.998 1.414
  vertex 7.998 9.998 0
  endloop
 endfacet

 facet normal 0 0.816455 0.577408
  outer loop
  vertex 2 9.998 0
  vertex 3 8.998 1.414
  vertex 3.998 9.998 0
  endloop
 endfacet

 facet normal 0.707814 -0.706398 0
  outer loop
  vertex 3.998 5.998 0
  vertex 3.998 5.998 1.414
  vertex 3 4.998 1.414
  endloop
 endfacet

 facet normal -0.707107 0.707107 0
  outer loop
  vertex 7.998 9.998 1.414
  vertex 7.998 9.998 0
  vertex 6.998 8.998 1.414
  endloop
 endfacet

 facet normal -0.707813 0.7064 0
  outer loop
  vertex 7.998 9.998 0
  vertex 7.998 9.998 1.414
  vertex 8.998 11 1.414
  endloop
 endfacet

 facet normal 0.707107 -0.707107 0
  outer loop
  vertex 3.998 5.998 0
  vertex 4.998 6.998 1.414
  vertex 3.998 5.998 1.414
  endloop
 endfacet

 facet normal 0 -0.816455 -0.577408
  outer loop
  vertex 2 5.998 0
  vertex 3.998 5.998 0
  vertex 3 4.998 1.414
  endloop
 endfacet

 facet normal -0.707107 -0.707107 0
  outer loop
  vertex 9.998 -2 0
  vertex 9.998 -2 1.414
  vertex 8.998 -1 1.414
  endloop
 endfacet

 facet normal 0.707107 0.707107 0
  outer loop
  vertex 5.998 2 0
  vertex 4.998 3 1.414
  vertex 5.998 2 1.414
  endloop
 endfacet

 facet normal 0.707107 0.707107 0
  outer loop
  vertex -2 9.998 1.414
  vertex -1 8.998 1.414
  vertex -2 9.998 0
  endloop
 endfacet

 facet normal -0.707107 -0.707107 0
  outer loop
  vertex 2 5.998 1.414
  vertex 2 5.998 0
  vertex 3 4.998 1.414
  endloop
 endfacet

 facet normal 0.7064 0.707813 0
  outer loop
  vertex 9.998 2.38419e-07 1.414
  vertex 11 -1 1.414
  vertex 9.998 2.38419e-07 0
  endloop
 endfacet

 facet normal 0.707107 0.707107 0
  outer loop
  vertex 9.998 2.38419e-07 0
  vertex 8.998 1 1.414
  vertex 9.998 2.38419e-07 1.414
  endloop
 endfacet

 facet normal -0.816455 0 -0.577408
  outer loop
  vertex 5.998 3.998 0
  vertex 4.998 4.998 1.414
  vertex 5.998 5.998 0
  endloop
 endfacet

 facet normal -0.707107 -0.707107 0
  outer loop
  vertex 5.998 5.998 0
  vertex 5.998 5.998 1.414
  vertex 4.998 6.998 1.414
  endloop
 endfacet

 facet normal 0 -0.816455 0.577408
  outer loop
  vertex 3.998 5.998 0
  vertex 5.998 5.998 0
  vertex 4.998 6.998 1.414
  endloop
 endfacet

 facet normal 0.707107 -0.707107 0
  outer loop
  vertex 9.998 9.998 1.414
  vertex 8.998 8.998 1.414
  vertex 9.998 9.998 0
  endloop
 endfacet

 facet normal -0.707107 0.707107 0
  outer loop
  vertex 5.998 5.998 1.414
  vertex 5.998 5.998 0
  vertex 4.998 4.998 1.414
  endloop
 endfacet

 facet normal 0.707107 -0.707107 0
  outer loop
  vertex 2 2 0
  vertex 3 3 1.414
  vertex 2 2 1.414
  endloop
 endfacet

 facet normal -0.707107 0.707107 0
  outer loop
  vertex -2 -2 0
  vertex -2 -2 1.414
  vertex -1 -1 1.414
  endloop
 endfacet

 facet normal -0.707107 -0.707107 0
  outer loop
  vertex -2 2.38419e-07 1.414
  vertex -2 2.38419e-07 0
  vertex -1 -1 1.414
  endloop
 endfacet

 facet normal -0.707107 -0.707107 0
  outer loop
  vertex -2 2.38419e-07 0
  vertex -2 2.38419e-07 1.414
  vertex -3 1 1.414
  endloop
 endfacet

 facet normal -0.816455 0 -0.577408
  outer loop
  vertex -2 7.998 0
  vertex -3 8.998 1.414
  vertex -2 9.998 0
  endloop
 endfacet

 facet normal -0.816455 0 -0.577408
  outer loop
  vertex -2 3.998 0
  vertex -3 4.998 1.414
  vertex -2 5.998 0
  endloop
 endfacet

 facet normal -0.816455 0 -0.577408
  outer loop
  vertex -2 2.38419e-07 0
  vertex -3 1 1.414
  vertex -2 2 0
  endloop
 endfacet

 facet normal -0.707107 -0.707107 0
  outer loop
  vertex 2 -2 1.414
  vertex 2 -2 0
  vertex 3 -3 1.414
  endloop
 endfacet

 facet normal -0.707107 -0.707107 0
  outer loop
  vertex 2 -2 0
  vertex 2 -2 1.414
  vertex 1 -1 1.414
  endloop
 endfacet

 facet normal 0.707107 0.707107 0
  outer loop
  vertex 2 2 1.414
  vertex 3 1 1.414
  vertex 2 2 0
  endloop
 endfacet

 facet normal 0.707107 -0.707107 0
  outer loop
  vertex 2.38419e-07 -2 1.414
  vertex -1 -3 1.414
  vertex 2.38419e-07 -2 0
  endloop
 endfacet

 facet normal 0.707107 -0.707107 0
  outer loop
  vertex 2.38419e-07 -2 0
  vertex 1 -1 1.414
  vertex 2.38419e-07 -2 1.414
  endloop
 endfacet

 facet normal 0 -0.816455 -0.577408
  outer loop
  vertex 5.998 -2 0
  vertex 7.998 -2 0
  vertex 6.998 -3 1.414
  endloop
 endfacet

 facet normal 0 -0.816455 -0.577408
  outer loop
  vertex 2 -2 0
  vertex 3.998 -2 0
  vertex 3 -3 1.414
  endloop
 endfacet

 facet normal 0 -0.816455 -0.577408
  outer loop
  vertex -2 -2 0
  vertex 2.38419e-07 -2 0
  vertex -1 -3 1.414
  endloop
 endfacet

 facet normal -0.707107 -0.707107 0
  outer loop
  vertex -2 -2 0
  vertex -1 -3 1.414
  vertex -2 -2 1.414
  endloop
 endfacet

 facet normal -0.816455 0 0.577408
  outer loop
  vertex -2 5.998 0
  vertex -1 6.998 1.414
  vertex -2 7.998 0
  endloop
 endfacet

 facet normal -0.816455 0 0.577408
  outer loop
  vertex -2 2 0
  vertex -1 3 1.414
  vertex -2 3.998 0
  endloop
 endfacet

 facet normal -0.816455 0 0.577408
  outer loop
  vertex -2 -2 0
  vertex -1 -1 1.414
  vertex -2 2.38419e-07 0
  endloop
 endfacet

 facet normal 0 0.816455 -0.577409
  outer loop
  vertex 3.998 2 0
  vertex 4.998 3 1.414
  vertex 5.998 2 0
  endloop
 endfacet

 facet normal 0.707107 -0.707107 0
  outer loop
  vertex 2 5.998 1.414
  vertex 1 4.998 1.414
  vertex 2 5.998 0
  endloop
 endfacet

 facet normal 0 -0.816455 0.577408
  outer loop
  vertex 7.998 -2 0
  vertex 9.998 -2 0
  vertex 8.998 -1 1.414
  endloop
 endfacet

 facet normal 0 -0.816455 0.577408
  outer loop
  vertex 3.998 -2 0
  vertex 5.998 -2 0
  vertex 4.998 -1 1.414
  endloop
 endfacet

 facet normal 0 -0.816455 0.577408
  outer loop
  vertex 2.38419e-07 -2 0
  vertex 2 -2 0
  vertex 1 -1 1.414
  endloop
 endfacet

 facet normal 0.707107 0.707107 0
  outer loop
  vertex 9.998 3.998 0
  vertex 8.998 4.998 1.414
  vertex 9.998 3.998 1.414
  endloop
 endfacet

 facet normal 0.707107 -0.707107 0
  outer loop
  vertex 9.998 5.998 1.414
  vertex 8.998 4.998 1.414
  vertex 9.998 5.998 0
  endloop
 endfacet

 facet normal 0.7064 -0.707813 0
  outer loop
  vertex 9.998 5.998 0
  vertex 11 6.998 1.414
  vertex 9.998 5.998 1.414
  endloop
 endfacet

 facet normal 0.816455 0 -0.577409
  outer loop
  vertex 2 2 0
  vertex 2 3.998 0
  vertex 3 3 1.414
  endloop
 endfacet

 facet normal -0.707107 -0.707107 0
  outer loop
  vertex -2 3.998 0
  vertex -2 3.998 1.414
  vertex -3 4.998 1.414
  endloop
 endfacet

 facet normal -0.706398 -0.707814 0
  outer loop
  vertex -2 3.998 0
  vertex -1 3 1.414
  vertex -2 3.998 1.414
  endloop
 endfacet

 facet normal -0.707107 -0.707107 0
  outer loop
  vertex 5.998 -2 1.414
  vertex 5.998 -2 0
  vertex 6.998 -3 1.414
  endloop
 endfacet

 facet normal -0.707107 -0.707107 0
  outer loop
  vertex 5.998 -2 0
  vertex 5.998 -2 1.414
  vertex 4.998 -1 1.414
  endloop
 endfacet

 facet normal 0 0.816455 0.577408
  outer loop
  vertex 2 2 0
  vertex 3 1 1.414
  vertex 3.998 2 0
  endloop
 endfacet

 facet normal -0.816455 0 0.577408
  outer loop
  vertex 5.998 2 0
  vertex 6.998 3 1.414
  vertex 5.998 3.998 0
  endloop
 endfacet

 facet normal 0.706398 0.707815 0
  outer loop
  vertex 2 3.998 0
  vertex 2 3.998 1.414
  vertex 3 3 1.414
  endloop
 endfacet

 facet normal -0.707107 -0.707107 0
  outer loop
  vertex -2 7.998 1.414
  vertex -2 7.998 0
  vertex -1 6.998 1.414
  endloop
 endfacet

 facet normal -0.707107 -0.707107 0
  outer loop
  vertex -2 7.998 0
  vertex -2 7.998 1.414
  vertex -3 8.998 1.414
  endloop
 endfacet

 facet normal 0.707107 0.707107 0
  outer loop
  vertex 2 3.998 0
  vertex 1 4.998 1.414
  vertex 2 3.998 1.414
  endloop
 endfacet

 facet normal -0.707107 0.707107 0
  outer loop
  vertex 2.38419e-07 9.998 1.414
  vertex 2.38419e-07 9.998 0
  vertex -1 8.998 1.414
  endloop
 endfacet

 facet normal -0.707813 0.7064 0
  outer loop
  vertex 2.38419e-07 9.998 0
  vertex 2.38419e-07 9.998 1.414
  vertex 1 11 1.414
  endloop
 endfacet

 facet normal -0.707107 0.707107 0
  outer loop
  vertex -2 9.998 0
  vertex -3 8.998 1.414
  vertex -2 9.998 1.414
  endloop
 endfacet

 facet normal -0.707107 0.707107 0
  outer loop
  vertex 3.998 2 0
  vertex 3.998 2 1.414
  vertex 4.998 3 1.414
  endloop
 endfacet

 facet normal -0.707814 0.706398 0
  outer loop
  vertex 3.998 2 0
  vertex 3 1 1.414
  vertex 3.998 2 1.414
  endloop
 endfacet

 facet normal 0.707814 -0.706398 0
  outer loop
  vertex 3.998 -2 0
  vertex 3.998 -2 1.414
  vertex 3 -3 1.414
  endloop
 endfacet

 facet normal 0.707107 -0.707107 0
  outer loop
  vertex 3.998 -2 0
  vertex 4.998 -1 1.414
  vertex 3.998 -2 1.414
  endloop
 endfacet

 facet normal -0.707107 0.707107 0
  outer loop
  vertex 5.998 2 0
  vertex 5.998 2 1.414
  vertex 6.998 3 1.414
  endloop
 endfacet

 facet normal 0.707107 -0.707107 0
  outer loop
  vertex 9.998 2 1.414
  vertex 8.998 1 1.414
  vertex 9.998 2 0
  endloop
 endfacet

 facet normal 0.7064 -0.707813 0
  outer loop
  vertex 9.998 2 0
  vertex 11 3 1.414
  vertex 9.998 2 1.414
  endloop
 endfacet

 facet normal 0.816455 0 0.577408
  outer loop
  vertex 9.998 7.998 0
  vertex 9.998 9.998 0
  vertex 8.998 8.998 1.414
  endloop
 endfacet

 facet normal 0.816455 0 0.577408
  outer loop
  vertex 9.998 3.998 0
  vertex 9.998 5.998 0
  vertex 8.998 4.998 1.414
  endloop
 endfacet

 facet normal 0.816455 0 0.577408
  outer loop
  vertex 9.998 2.38419e-07 0
  vertex 9.998 2 0
  vertex 8.998 1 1.414
  endloop
 endfacet

 facet normal 0.707107 -0.707107 0
  outer loop
  vertex 7.998 -2 1.414
  vertex 6.998 -3 1.414
  vertex 7.998 -2 0
  endloop
 endfacet

 facet normal 0.707107 -0.707107 0
  outer loop
  vertex 7.998 -2 0
  vertex 8.998 -1 1.414
  vertex 7.998 -2 1.414
  endloop
 endfacet

 facet normal 0.815911 0 -0.578178
  outer loop
  vertex 9.998 5.998 0
  vertex 9.998 7.998 0
  vertex 11 6.998 1.414
  endloop
 endfacet

 facet normal 0.815911 0 -0.578178
  outer loop
  vertex 9.998 2 0
  vertex 9.998 3.998 0
  vertex 11 3 1.414
  endloop
 endfacet

 facet normal 0.815911 0 -0.578178
  outer loop
  vertex 9.998 -2 0
  vertex 9.998 2.38419e-07 0
  vertex 11 -1 1.414
  endloop
 endfacet

 facet normal 0.7064 -0.707813 0
  outer loop
  vertex 9.998 -2 0
  vertex 11 -1 1.414
  vertex 9.998 -2 1.414
  endloop
 endfacet

 facet normal -0.707107 -0.707107 0
  outer loop
  vertex 5.998 3.998 0
  vertex 5.998 3.998 1.414
  vertex 4.998 4.998 1.414
  endloop
 endfacet

 facet normal -0.706398 -0.707814 0
  outer loop
  vertex 5.998 3.998 0
  vertex 6.998 3 1.414
  vertex 5.998 3.998 1.414
  endloop
 endfacet

 facet normal 0.705691 0.70852 0
  outer loop
  vertex 9.998 3.998 0
  vertex 9.998 3.998 1.414
  vertex 11 3 1.414
  endloop
 endfacet

 facet normal 0.707813 0.7064 0
  outer loop
  vertex 9.998 9.998 0
  vertex 8.998 11 1.414
  vertex 9.998 9.998 1.414
  endloop
 endfacet

 facet normal 0.7064 0.707813 0
  outer loop
  vertex 9.998 7.998 1.414
  vertex 11 6.998 1.414
  vertex 9.998 7.998 0
  endloop
 endfacet

 facet normal 0.707107 0.707107 0
  outer loop
  vertex 9.998 7.998 0
  vertex 8.998 8.998 1.414
  vertex 9.998 7.998 1.414
  endloop
 endfacet

endsolid AssimpScene
